<svg  xmlns="http://www.w3.org/2000/svg" width="180px" viewBox="0 0 218.8 48.1">
    <g style="fill: #fff;">
        <path class="st0" d="M7.1,40.7h11.8v6.7H0V0.7h7.1V40.7z"></path>
        <path class="st0" d="M46.4,36.9c0,3.6-1,6.4-2.9,8.3c-1.9,1.9-4.6,2.9-8.1,2.9c-3.4,0-6-1-8-2.9c-1.9-1.9-2.9-4.7-2.9-8.3V0.7h6.8
 v36c0,3.1,1.3,4.7,4,4.7s4-1.6,4-4.7v-36h7.1V36.9z"></path>
        <path class="st0" d="M72.2,3c1.9,2,2.9,4.7,2.9,8.2v4.2l-6.8,0.3v-3.8c0-3.6-1.3-5.4-4-5.4c-1.3,0-2.3,0.4-3,1.2
 c-0.7,0.8-1,2-1,3.5v25.5c0,1.6,0.3,2.7,1,3.5c0.7,0.8,1.7,1.2,3,1.2c2.7,0,4-1.8,4-5.4v-5.2l6.8,0.3v5.6c0,3.5-1,6.3-2.9,8.2
 c-1.9,2-4.6,3-8.1,3c-3.4,0-6.1-1-8-2.9c-1.9-2-2.9-4.7-2.9-8.3V11.2c0-3.6,1-6.3,2.9-8.3C58,1,60.7,0,64.1,0C67.6,0,70.3,1,72.2,3
 z"></path>
        <path class="st0"
            d="M96.6,19.2l9.8,28.2h-7.5L91.9,27l-3.1,6v14.4h-7.1V0.7h7.1v19.5h0.1l9.8-19.5h7.4L96.6,19.2z"></path>
        <path class="st0" d="M126.8,26.3v21.1h-7.1V26.2l-9.8-25.6h7.5l5.9,16.6h0.1l5.7-16.6h7.3L126.8,26.3z"></path>
        <path class="st0" d="M160.7,3.7c2,2,3,5,3,8.8v23.1c0,3.8-1,6.8-3,8.8c-2,2-4.9,3-8.7,3h-10.1V0.7h10.1
 C155.8,0.7,158.7,1.7,160.7,3.7z M148.9,7.2v33.6h2.8c1.7,0,2.9-0.5,3.7-1.4c0.8-0.9,1.2-2.4,1.2-4.3V12.9c0-2-0.4-3.4-1.2-4.3
 c-0.8-0.9-2-1.4-3.7-1.4H148.9z"></path>
        <path class="st0" d="M184,26.3v21.1h-7.1V26.2l-9.8-25.6h7.5l5.9,16.6h0.1l5.7-16.6h7.3L184,26.3z"></path>
        <path class="st0" d="M218.8,7.2H206v13.2h10.3V27H206v13.9h12.8v6.5h-19.9V0.7h19.9V7.2z"></path>
    </g>
</svg>